<?xml version="1.0"?>
<svg xmlns:rdf="http://www.w3.org/1999/02/22-rdf-syntax-ns#" xmlns="http://www.w3.org/2000/svg" xmlns:cc="http://creativecommons.org/ns#" xmlns:dc="http://purl.org/dc/elements/1.1/" xmlns:svg="http://www.w3.org/2000/svg" id="svg3029" viewBox="0 0 1850.6 1850.6" version="1.1">
  <g id="layer1" transform="translate(550.3 392.94)">
    <path id="path3050" d="m1446.5 846.29a860.65 860.65 0 1 1 -1721.3 0 860.65 860.65 0 1 1 1721.3 0z" transform="matrix(1.0751 0 0 1.0751 -254.9 -377.5)"/>
    <path id="path3086" fill="#fff" d="m341.57 549.05-52.143 137.86-50-14.286 101.43-280.71 26.429 9.2857 26.429-9.2857 104.29 279.29-48.572 15.714-54.286-137.86 0.0001 137.86h-53.571z"/>
    <path id="path3677" d="m468.57 246.25-266.66 96.969 20.188 56.562 100.03-34.344c11.733 16.654 33.021 25.082 53.844 19.5 23.151-6.2054 38.123-27.684 37-50.687l79.844-27.406-24.25-60.594z" fill="#fff"/>
    <path id="path3683" fill="#fff" d="m481.72 241.19 177.79-83.843 36.366 102.03-189.91 47.477z"/>
    <path id="path3685" d="m666.57 141.18 44.447 123.24 9.4829-2.3774 13.751-11.765-39.396-109.1-21.213-2.0203z" fill="#fff"/>
    <path id="path3687" d="m191.7 351.8-156.93 54.45c-3.7712-2.1276-7.5303-2.7554-10.812-1.4688-8.8948 3.4869-10.871 19.696-4.4063 36.188 6.4647 16.491 18.918 27.018 27.812 23.531 3.1258-1.2254 5.4001-4.0182 6.7499-7.8437l155.87-56.875z" fill="#fff"/>
    <path id="path3689" fill="#fff" d="m458.99 703.33 38.386-13.637 84.348 222.74-36.871 13.132z"/>
    <path id="path3691" fill="#fff" d="m388.28 695.25-41.416-0.00001 3.0304 228.8 40.406 0.5051z"/>
    <path id="path3693" fill="#fff" d="m278.17 698.78-83.338 222.74-35.86-13.637 83.338-222.23z"/>
    <g id="text3013" fill="#fff">
      <path id="path3036" style="" d="m-5.9004 1123.4v-3.7265h5.8359v-29.883h-6.1875v-3.7617h12.656v6.6446c1.1953-2.5313 2.7422-4.4414 4.6406-5.7305 1.9219-1.289 4.1484-1.9336 6.6797-1.9336 4.125 0 7.1601 1.1836 9.1055 3.5508 1.9453 2.3672 2.9179 6.0586 2.918 11.074v20.039h5.7656v3.7265h-17.859v-3.7265h5.5898v-18c-0.000032-4.5703-0.56253-7.6992-1.6875-9.3868-1.125-1.7109-3.1055-2.5663-5.9414-2.5664-3 0.0001-5.2852 1.1016-6.8555 3.3047-1.5703 2.1797-2.3555 5.3672-2.3555 9.5625v17.086h5.625v3.7265h-17.93"/>
      <path id="path3038" style="" d="m76.576 1105.4h-27.879v0.2813c-0.000011 5.039 0.94921 8.8476 2.8477 11.426 1.8984 2.5546 4.6992 3.832 8.4023 3.832 2.8359 0 5.1562-0.7383 6.9609-2.2149 1.8281-1.5 3.1054-3.7148 3.832-6.6445h5.2031c-1.0313 4.1016-2.9414 7.1836-5.7305 9.2461-2.7657 2.0625-6.4102 3.0938-10.934 3.0938-5.461 0-9.8555-1.793-13.184-5.379-3.3047-3.6093-4.957-8.3906-4.957-14.344-0.000003-5.9062 1.6289-10.664 4.8867-14.273 3.2578-3.6094 7.5351-5.4141 12.832-5.4141 5.6484 0 9.9843 1.7461 13.008 5.2383 3.0234 3.4688 4.5937 8.5195 4.7109 15.152m-7.6289-3.7265c-0.14066-4.3594-1.0664-7.6406-2.7773-9.8438-1.6875-2.2265-4.125-3.3398-7.3125-3.3398-2.9766 0-5.3203 1.1133-7.0312 3.3398-1.711 2.2266-2.7539 5.5078-3.1289 9.8438h20.25"/>
      <path id="path3040" style="" d="m97.951 1123.4-13.746-33.609h-4.2539v-3.7617h17.191v3.7617h-5.9766l10.512 25.699 10.512-25.699h-5.5898v-3.7617h14.027v3.7617h-4.1836l-13.746 33.609h-4.7461"/>
      <path id="path3042" style="" d="m159.83 1105.4h-27.879v0.2813c-0.00001 5.039 0.94921 8.8476 2.8477 11.426 1.8984 2.5546 4.6992 3.832 8.4023 3.832 2.8359 0 5.1562-0.7383 6.9609-2.2149 1.8281-1.5 3.1054-3.7148 3.832-6.6445h5.2031c-1.0313 4.1016-2.9414 7.1836-5.7305 9.2461-2.7657 2.0625-6.4102 3.0938-10.934 3.0938-5.461 0-9.8555-1.793-13.184-5.379-3.3047-3.6093-4.957-8.3906-4.957-14.344 0-5.9062 1.6289-10.664 4.8867-14.273 3.2578-3.6094 7.5351-5.4141 12.832-5.4141 5.6484 0 9.9843 1.7461 13.008 5.2383 3.0234 3.4688 4.5937 8.5195 4.7109 15.152m-7.6289-3.7265c-0.14065-4.3594-1.0664-7.6406-2.7773-9.8438-1.6875-2.2265-4.125-3.3398-7.3125-3.3398-2.9766 0-5.3203 1.1133-7.0312 3.3398-1.711 2.2266-2.7539 5.5078-3.1289 9.8438h20.25"/>
      <path id="path3044" style="" d="m197.83 1085.9v9.3516h-3.7266c-0.11721-1.8516-0.63284-3.2344-1.5469-4.1485-0.91409-0.914-2.25-1.371-4.0078-1.3711-3.1875 0.0001-5.6367 1.1016-7.3477 3.3047-1.6875 2.2032-2.5313 5.3672-2.5312 9.4922v17.086h7.4883v3.7265h-19.793v-3.7265h5.8359v-29.953h-6.1875v-3.6914h12.656v6.6446c1.2656-2.6016 2.8945-4.5234 4.8867-5.7657 1.9922-1.2656 4.4179-1.8984 7.2773-1.8984 1.0547 0 2.1562 0.082 3.3047 0.2461 1.1718 0.1641 2.4023 0.3985 3.6914 0.7031"/>
      <path id="path3046" style="" d="m224.83 1121.3v-8.7187h3.7266c0.0937 2.789 0.96093 4.875 2.6016 6.2578 1.664 1.3828 4.1133 2.0742 7.3477 2.0742 2.9062 0 5.1211-0.5391 6.6445-1.6172 1.5234-1.1016 2.2851-2.6953 2.2852-4.7813-0.00003-1.6406-0.56253-2.9648-1.6875-3.9726-1.1016-1.0078-3.4453-2.0859-7.0312-3.2344l-4.6758-1.582c-3.2109-1.0312-5.543-2.3203-6.9961-3.8672-1.4297-1.5469-2.1445-3.5156-2.1445-5.9063 0-3.4218 1.2539-6.1054 3.7617-8.0507s5.9766-2.918 10.406-2.918c1.9687 0 4.0429 0.2578 6.2226 0.7734 2.1797 0.5157 4.4297 1.2657 6.75 2.25v8.1563h-3.7266c-0.0938-2.414-0.93752-4.3008-2.5312-5.6602-1.5938-1.3593-3.7617-2.039-6.5039-2.039-2.7188 0-4.7813 0.4805-6.1875 1.4414-1.3828 0.9609-2.0742 2.4023-2.0742 4.3242-0.00001 1.5703 0.52733 2.836 1.582 3.7969 1.0547 0.9375 3.164 1.8984 6.3281 2.8828l5.1328 1.582c3.539 1.1016 6.082 2.4844 7.6289 4.1484 1.5703 1.6407 2.3554 3.7618 2.3555 6.3633-0.00003 3.5391-1.3594 6.3282-4.0781 8.3672-2.6953 2.0156-6.4219 3.0235-11.18 3.0235-2.4141 0-4.7696-0.2579-7.0664-0.7735-2.2969-0.5156-4.5938-1.289-6.8906-2.3203"/>
      <path id="path3048" style="" d="m265.54 1089.8h-5.6953v-3.7617h5.6953v-11.602h6.5039v11.602h12.164v3.7617h-12.164v23.73c-0.00001 3.1641 0.30467 5.1914 0.91406 6.082 0.60936 0.8907 1.7344 1.336 3.375 1.336 1.6875 0 2.918-0.4922 3.6914-1.4766 0.77341-1.0078 1.1836-2.625 1.2305-4.8515h4.8867c-0.18753 3.3984-1.1133 5.8828-2.7774 7.4531s-4.1953 2.3555-7.5938 2.3555c-3.7266 0-6.3633-0.8204-7.9102-2.461-1.5469-1.664-2.3203-4.4765-2.3203-8.4375v-23.73"/>
      <path id="path3051" style="" d="m308.4 1120.9c3.4687 0 6.082-1.3711 7.8398-4.1133 1.7812-2.7422 2.6718-6.7851 2.6719-12.129-0.00003-5.3437-0.89065-9.375-2.6719-12.094-1.7578-2.7421-4.3711-4.1132-7.8398-4.1132-3.4688 0-6.0938 1.3711-7.875 4.1132-1.7578 2.7188-2.6367 6.7501-2.6367 12.094-0.00001 5.3438 0.89062 9.3867 2.6719 12.129 1.7812 2.7422 4.3945 4.1133 7.8398 4.1133m0 3.4805c-5.4375 0-9.8086-1.793-13.113-5.379-3.3047-3.6093-4.957-8.3906-4.957-14.344 0-5.9531 1.6406-10.723 4.9219-14.309 3.3047-3.5859 7.6875-5.3789 13.148-5.3789 5.4609 0 9.832 1.793 13.113 5.3789 3.3046 3.586 4.957 8.3555 4.957 14.309-0.00004 5.9531-1.6524 10.734-4.957 14.344-3.2813 3.586-7.6524 5.379-13.113 5.379"/>
      <path id="path3053" style="" d="m344.82 1102.8v3.6914c-0.00002 4.5 0.85545 7.9336 2.5664 10.301 1.7344 2.3437 4.2422 3.5156 7.5234 3.5156 3.3047 0 5.8008-1.3242 7.4883-3.9727 1.7109-2.6484 2.5664-6.5507 2.5664-11.707-0.00004-5.1797-0.8555-9.082-2.5664-11.707-1.6875-2.625-4.1836-3.9375-7.4883-3.9375-3.2813 0-5.7891 1.1836-7.5234 3.5507-1.711 2.3673-2.5664 5.7891-2.5664 10.266m-6.4688-13.078h-6.2227v-3.7617h12.691v5.836c1.2656-2.3438 2.8711-4.0664 4.8164-5.168 1.9687-1.125 4.3945-1.6875 7.2774-1.6875 4.5937 0 8.3437 1.8164 11.25 5.4492 2.9062 3.6329 4.3593 8.3789 4.3594 14.238-0.00004 5.8594-1.4532 10.617-4.3594 14.273-2.9063 3.6328-6.6563 5.4493-11.25 5.4493-2.8828 0-5.3086-0.5508-7.2774-1.6524-1.9453-1.125-3.5508-2.8594-4.8164-5.2031v17.051h6.1172v3.7617h-18.809v-3.7617h6.2227v-44.824"/>
      <path id="path3055" style="" d="m403.14 1121.3v-8.7187h3.7266c0.0937 2.789 0.96093 4.875 2.6016 6.2578 1.664 1.3828 4.1133 2.0742 7.3477 2.0742 2.9062 0 5.1211-0.5391 6.6445-1.6172 1.5234-1.1016 2.2851-2.6953 2.2852-4.7813-0.00003-1.6406-0.56253-2.9648-1.6875-3.9726-1.1016-1.0078-3.4453-2.0859-7.0312-3.2344l-4.6758-1.582c-3.2109-1.0312-5.543-2.3203-6.9961-3.8672-1.4297-1.5469-2.1445-3.5156-2.1445-5.9063 0-3.4218 1.2539-6.1054 3.7617-8.0507s5.9766-2.918 10.406-2.918c1.9687 0 4.0429 0.2578 6.2226 0.7734 2.1797 0.5157 4.4297 1.2657 6.75 2.25v8.1563h-3.7266c-0.0938-2.414-0.93752-4.3008-2.5312-5.6602-1.5938-1.3593-3.7617-2.039-6.5039-2.039-2.7188 0-4.7813 0.4805-6.1875 1.4414-1.3828 0.9609-2.0742 2.4023-2.0742 4.3242-0.00001 1.5703 0.52733 2.836 1.582 3.7969 1.0547 0.9375 3.164 1.8984 6.3281 2.8828l5.1328 1.582c3.539 1.1016 6.082 2.4844 7.6289 4.1484 1.5703 1.6407 2.3554 3.7618 2.3555 6.3633-0.00003 3.5391-1.3594 6.3282-4.0781 8.3672-2.6953 2.0156-6.4219 3.0235-11.18 3.0235-2.4141 0-4.7696-0.2579-7.0664-0.7735-2.2969-0.5156-4.5938-1.289-6.8906-2.3203"/>
      <path id="path3057" style="" d="m475.11 1105.4h-27.879v0.2813c-0.00001 5.039 0.94921 8.8476 2.8477 11.426 1.8984 2.5546 4.6992 3.832 8.4023 3.832 2.8359 0 5.1562-0.7383 6.9609-2.2149 1.8281-1.5 3.1054-3.7148 3.832-6.6445h5.2031c-1.0313 4.1016-2.9414 7.1836-5.7305 9.2461-2.7657 2.0625-6.4102 3.0938-10.934 3.0938-5.461 0-9.8555-1.793-13.184-5.379-3.3047-3.6093-4.957-8.3906-4.957-14.344 0-5.9062 1.6289-10.664 4.8867-14.273 3.2578-3.6094 7.5351-5.4141 12.832-5.4141 5.6484 0 9.9843 1.7461 13.008 5.2383 3.0234 3.4688 4.5937 8.5195 4.7109 15.152m-7.6289-3.7265c-0.14065-4.3594-1.0664-7.6406-2.7773-9.8438-1.6875-2.2265-4.125-3.3398-7.3125-3.3398-2.9766 0-5.3203 1.1133-7.0312 3.3398-1.711 2.2266-2.7539 5.5078-3.1289 9.8438h20.25"/>
      <path id="path3059" style="" d="m507.35 1111.6v-7.9101h-8.332c-3.211 0-5.6016 0.6914-7.1719 2.0742s-2.3555 3.5039-2.3555 6.3633c-0.00001 2.6015 0.79686 4.664 2.3906 6.1875 1.5937 1.5234 3.75 2.2851 6.4688 2.2851 2.6953 0 4.8633-0.832 6.5039-2.4961 1.664-1.664 2.4961-3.832 2.4961-6.5039m6.4688-11.602v19.617h5.7656v3.7265h-12.234v-4.0429c-1.4297 1.7343-3.0821 3.0117-4.957 3.832-1.875 0.8203-4.0664 1.2305-6.5742 1.2305-4.1484 0-7.4414-1.1016-9.8789-3.3047-2.4375-2.2032-3.6563-5.1797-3.6562-8.9297-0.00001-3.8672 1.3945-6.8672 4.1836-9 2.789-2.1328 6.7266-3.1992 11.812-3.1992h9.0703v-2.5664c-0.00003-2.836-0.86721-5.0274-2.6016-6.5743-1.711-1.5702-4.125-2.3554-7.2422-2.3554-2.5781 0-4.6289 0.5859-6.1523 1.7578s-2.4727 2.9063-2.8477 5.2031h-3.3398v-7.5586c2.25-0.9609 4.4297-1.6757 6.5391-2.1445 2.1328-0.4922 4.207-0.7383 6.2227-0.7383 5.1797 0 9.1172 1.2891 11.812 3.8672 2.7187 2.5547 4.0781 6.2813 4.0781 11.18"/>
      <path id="path3061" style="" d="m556 1085.9v9.3516h-3.7266c-0.11722-1.8516-0.63284-3.2344-1.5469-4.1485-0.91409-0.914-2.25-1.371-4.0078-1.3711-3.1875 0.0001-5.6367 1.1016-7.3476 3.3047-1.6875 2.2032-2.5313 5.3672-2.5312 9.4922v17.086h7.4883v3.7265h-19.793v-3.7265h5.8359v-29.953h-6.1875v-3.6914h12.656v6.6446c1.2656-2.6016 2.8945-4.5234 4.8867-5.7657 1.9922-1.2656 4.418-1.8984 7.2774-1.8984 1.0547 0 2.1562 0.082 3.3047 0.2461 1.1718 0.1641 2.4023 0.3985 3.6914 0.7031"/>
      <path id="path3063" style="" d="m593.06 1112.2c-0.9141 3.9844-2.6719 7.0195-5.2734 9.1054-2.6016 2.086-5.9649 3.129-10.09 3.129-5.4375 0-9.8086-1.793-13.113-5.379-3.3047-3.6093-4.957-8.3906-4.957-14.344-0.00001-5.9765 1.6523-10.746 4.957-14.309 3.3047-3.5859 7.6758-5.3789 13.113-5.3789 2.3672 0 4.7226 0.2813 7.0664 0.8437 2.3437 0.5391 4.6992 1.3712 7.0664 2.4961v9.5625h-3.7617c-0.49222-3.2812-1.5703-5.6718-3.2344-7.1718-1.6407-1.5-3.9961-2.25-7.0664-2.25-3.4922 0-6.1289 1.3594-7.9102 4.0781-1.7813 2.6953-2.6719 6.7383-2.6719 12.129-0.00001 5.3906 0.87889 9.4453 2.6367 12.164 1.7812 2.7187 4.4297 4.0781 7.9453 4.0781 2.789 0 5.0156-0.7266 6.6797-2.1797 1.664-1.4531 2.8008-3.6445 3.4102-6.5742h5.2031"/>
      <path id="path3065" style="" d="m599.35 1123.4v-3.7265h5.8359v-47.25h-6.1875v-3.7266h12.656v23.977c1.1953-2.5313 2.7422-4.4414 4.6406-5.7305 1.9218-1.289 4.1484-1.9336 6.6797-1.9336 4.125 0 7.1601 1.1836 9.1055 3.5508 1.9453 2.3672 2.9179 6.0586 2.918 11.074v20.039h5.7656v3.7265h-17.859v-3.7265h5.5898v-18c-0.00003-4.5703-0.56253-7.6875-1.6875-9.3516-1.1016-1.6875-3.0821-2.5312-5.9414-2.5313-3 0.0001-5.2852 1.0899-6.8555 3.2696s-2.3555 5.3555-2.3555 9.5273v17.086h5.625v3.7265h-17.93"/>
      <path id="path3067" style="" d="m649.8 1074.4c-0.00001-1.0781 0.38671-2.0156 1.1602-2.8125 0.79687-0.7969 1.7461-1.1953 2.8477-1.1953 1.0781 0 2.0039 0.3984 2.7773 1.1953 0.79686 0.7969 1.1953 1.7344 1.1953 2.8125-0.00002 1.1016-0.38674 2.0391-1.1602 2.8125-0.77345 0.7734-1.711 1.1602-2.8125 1.1601-1.1016 0.0001-2.0508-0.3867-2.8477-1.1601-0.77344-0.7734-1.1602-1.7109-1.1602-2.8125m8.2617 45.246h6.1172v3.7265h-18.773v-3.7265h6.1875v-29.883h-6.1875v-3.7617h12.656v33.645"/>
      <path id="path3069" style="" d="m668.82 1123.4v-3.7265h5.8359v-29.883h-6.1875v-3.7617h12.656v6.6446c1.1953-2.5313 2.7422-4.4414 4.6406-5.7305 1.9218-1.289 4.1484-1.9336 6.6797-1.9336 4.125 0 7.1601 1.1836 9.1055 3.5508 1.9453 2.3672 2.9179 6.0586 2.918 11.074v20.039h5.7656v3.7265h-17.859v-3.7265h5.5898v-18c-0.00003-4.5703-0.56253-7.6992-1.6875-9.3868-1.125-1.7109-3.1055-2.5663-5.9414-2.5664-3 0.0001-5.2852 1.1016-6.8555 3.3047-1.5703 2.1797-2.3555 5.3672-2.3555 9.5625v17.086h5.625v3.7265h-17.93"/>
      <path id="path3071" style="" d="m750.06 1089.8v32.801c-0.00004 5.3672-1.4766 9.5039-4.4297 12.41-2.9532 2.9297-7.1602 4.3945-12.621 4.3945-2.461 0-4.8164-0.2227-7.0664-0.668s-4.4063-1.1132-6.4688-2.0039v-7.8398h3.375c0.42187 2.4375 1.418 4.2187 2.9883 5.3437s3.8203 1.6875 6.75 1.6875c3.7968 0 6.5742-1.0781 8.332-3.2343 1.7812-2.1328 2.6718-5.4961 2.6719-10.09v-5.0273c-1.2656 2.3437-2.8828 4.0781-4.8516 5.2031-1.9453 1.1016-4.3594 1.6524-7.2422 1.6524-4.5938 0-8.3555-1.8165-11.285-5.4493-2.9063-3.6562-4.3594-8.414-4.3594-14.273 0-5.8594 1.4531-10.605 4.3594-14.238 2.9062-3.6328 6.668-5.4492 11.285-5.4492 2.8828 0 5.2968 0.5625 7.2422 1.6875 1.9687 1.1016 3.5859 2.8242 4.8516 5.168v-5.836h12.656v3.7617h-6.1875m-6.4688 13.078c-0.00003-4.4766-0.86722-7.8984-2.6016-10.266-1.711-2.3671-4.2071-3.5507-7.4883-3.5507-3.3281 0-5.8477 1.3125-7.5586 3.9375-1.6875 2.625-2.5313 6.5273-2.5312 11.707-0.00001 5.1563 0.84374 9.0586 2.5312 11.707 1.7109 2.6485 4.2305 3.9727 7.5586 3.9727 3.2812 0 5.7773-1.1719 7.4883-3.5156 1.7343-2.3672 2.6015-5.8008 2.6016-10.301v-3.6914"/>
    </g>
  </g>
</svg>
