<?xml version="1.0"?>
<svg xmlns:rdf="http://www.w3.org/1999/02/22-rdf-syntax-ns#" xmlns="http://www.w3.org/2000/svg" xmlns:cc="http://creativecommons.org/ns#" xmlns:dc="http://purl.org/dc/elements/1.1/" xmlns:svg="http://www.w3.org/2000/svg" id="svg2" viewBox="0 0 404.66 645.77" version="1.0">
  <path id="rect6792" stroke-linejoin="round" d="m335.75 426.69h7.76v91.27l-7.76 12.46v-103.73z" stroke="#000" stroke-width="1.466" fill="#efefef"/>
  <path id="path4402" stroke-linejoin="round" d="m315.34 0.6894c-3.79 0.00378-7.98 0.4944-12.63 1.5295-59.52 13.25-207.3 54.887-229.7 63.875-18.736 7.519-19.353 32.407-19.053 40.366-2.594 0.89-5.052 2.07-7.315 3.53l-35.844-33.422-10.109 9.477 32.686 40.465c-1.329 3.6-2.061 7.48-2.061 11.54 0 11.65 5.979 21.92 15.029 27.9v68.16h35.545l1.098-29.37 1.097-39.49c8.483-6.06 14.032-15.99 14.032-27.2 0-15.06-9.968-27.8-23.675-31.95-0.941-7.997-1.475-24.643 9.51-29.432 14.577-6.355 192.1-54.405 223.98-59.32 33.02-8.6704 22.11 49.478 22.11 49.478h17.72s12.3-66.181-32.42-66.137z" stroke="#000" stroke-width="1.3788" fill="none"/>
  <path id="path11661" fill="#49ffff" d="m5.8079 501.04c0.631 29.1 26.228 60.15 59.801 60.15 33.574 0 60.851-27.19 60.851-60.76v-0.09c0 0.22-120.66 0.55-120.65 0.7z"/>
  <path id="path2444" stroke-linejoin="round" d="m42.031 209.42l1.814 29.77-0.23 163.93c-18.886 25.91-38.112 73.69-38.112 97.47 0.0003 33.57 27.273 60.85 60.847 60.85 33.573 0 60.85-27.19 60.85-60.77v-0.08c0-25.27-21.22-77.69-42.084-102.1v-159.15l1.584-29.59-44.669-0.33z" stroke="#000" stroke-width="2" fill="none"/>
  <path id="path4421" stroke-linejoin="round" d="m358.69 117.45l-0.37-1.84-0.36-1.83-0.37-1.47-0.73-1.46-1.1-1.47-1.1-1.1-1.47-1.83-1.1-2.2-0.73-2.2 0.36-1.47v-0.36h-24.55v0.36l-0.37 0.74v1.1l-0.36 2.56-0.37 1.1v1.1l-0.73 0.74v0.36l-1.84 1.84-1.09 2.19-0.74 2.57-0.36 2.57v301.32l0.36 1.83 0.74 1.47 0.73 1.46 1.1 1.47 1.1 1.47 1.83 1.46 2.2 1.1 2.2 0.74 2.93 0.36h12.83l1.46-0.36 1.84-0.74 1.46-0.73 1.47-0.73 1.1-1.1 1.46-2.2 1.47-2.2 0.73-2.2 0.37-2.57 0.36-0.36h13.56v-8.8h-13.56l-0.36-0.37v-281.53h14.29v-8.43h-14.29v-0.36" stroke="#000" stroke-width="1.466px" fill="none"/>
  <path id="path4427" fill="#efefef" d="m354.66 401.91l1.1 0.73 0.73 0.73 0.37 0.74v1.1l-0.37 1.1-0.37 0.73-0.73 0.73-0.73 0.37-1.1 0.37h-1.84l-24.55-8.44-1.1-0.73-0.73-0.73-0.37-1.1v-0.73l0.37-1.1 0.36-1.1 0.74-0.37 0.73-0.73 1.1-0.37h0.73l1.1 0.37 24.56 8.43z"/>
  <path id="path4429" stroke-linejoin="round" d="m330.1 393.48l24.56 8.43 1.1 0.73 0.73 0.73 0.37 0.74v1.1l-0.37 1.1-0.37 0.73-0.73 0.73-0.73 0.37-1.1 0.37h-1.84l-24.55-8.44-1.1-0.73-0.73-0.73-0.37-1.1v-0.73l0.37-1.1 0.36-1.1 0.74-0.37 0.73-0.73 1.1-0.37h0.73l1.1 0.37" stroke="#000" stroke-width="1.466px" fill="none"/>
  <path id="path4431" fill="#efefef" d="m353.92 335.19l1.1 0.37 0.74 1.1 0.36 0.73v1.1l-0.36 1.1-0.37 0.73-0.73 0.74-0.74 0.36-1.1 0.37h-1.83l-24.55-8.43-1.1-0.74-0.74-0.73-0.36-1.1v-0.73l0.36-1.1 0.37-1.1 0.73-0.73 0.74-0.37 1.1-0.37h0.73l1.1 0.37 24.55 8.43z"/>
  <path id="path4433" stroke-linejoin="round" d="m329.37 326.76l24.55 8.43 1.1 0.37 0.74 1.1 0.36 0.73v1.1l-0.36 1.1-0.37 0.73-0.73 0.74-0.74 0.36-1.1 0.37h-1.83l-24.55-8.43-1.1-0.74-0.74-0.73-0.36-1.1v-0.73l0.36-1.1 0.37-1.1 0.73-0.73 0.74-0.37 1.1-0.37h0.73l1.1 0.37" stroke="#000" stroke-width="1.466px" fill="none"/>
  <path id="path4435" fill="#efefef" d="m353.92 368.55l1.1 0.37 0.74 1.1 0.36 0.73v1.1l-0.36 1.1-0.37 0.73-0.73 0.73-0.74 0.37-1.1 0.37h-1.83l-24.55-8.43-1.1-0.74-0.74-0.73-0.36-1.1v-0.73l0.36-1.1 0.37-1.1 0.73-0.37 0.74-0.73 1.1-0.37h0.73l1.1 0.37 24.55 8.43z"/>
  <path id="path4437" stroke-linejoin="round" d="m329.37 360.12l24.55 8.43 1.1 0.37 0.74 1.1 0.36 0.73v1.1l-0.36 1.1-0.37 0.73-0.73 0.73-0.74 0.37-1.1 0.37h-1.83l-24.55-8.43-1.1-0.74-0.74-0.73-0.36-1.1v-0.73l0.36-1.1 0.37-1.1 0.73-0.37 0.74-0.73 1.1-0.37h0.73l1.1 0.37" stroke="#000" stroke-width="1.466px" fill="none"/>
  <path id="path4439" fill="#efefef" d="m353.92 385.04l1.1 0.74 0.74 0.73 0.36 0.73v1.1l-0.36 1.1-0.37 0.74-0.73 0.73-0.74 0.73h-2.93l-24.55-8.43-1.1-0.73-0.74-0.73-0.36-1.1v-0.74l0.36-1.1 0.37-1.1 0.73-0.36 0.74-0.74h1.1l0.73-0.36 1.1 0.36 24.55 8.43z"/>
  <path id="path4441" stroke-linejoin="round" d="m329.37 376.61l24.55 8.43 1.1 0.74 0.74 0.73 0.36 0.73v1.1l-0.36 1.1-0.37 0.74-0.73 0.73-0.74 0.73h-2.93l-24.55-8.43-1.1-0.73-0.74-0.73-0.36-1.1v-0.74l0.36-1.1 0.37-1.1 0.73-0.36 0.74-0.74h1.1l0.73-0.36 1.1 0.36" stroke="#000" stroke-width="1.466px" fill="none"/>
  <path id="path4443" fill="#efefef" d="m326.44 393.48l-1.1 0.73-0.74 0.73-0.36 0.74v1.1l0.36 1.09 0.37 0.74 0.73 0.73 0.74 0.73h2.93l24.55-8.43 1.1-0.73 0.74-0.73 0.36-1.1v-0.74l-0.36-1.1-0.37-1.1-0.73-0.36-0.74-0.74-1.1-0.36h-0.73l-1.1 0.36-24.55 8.44z"/>
  <path id="path4445" stroke-linejoin="round" d="m350.99 385.04l-24.55 8.44-1.1 0.73-0.74 0.73-0.36 0.74v1.1l0.36 1.09 0.37 0.74 0.73 0.73 0.74 0.73h2.93l24.55-8.43 1.1-0.73 0.74-0.73 0.36-1.1v-0.74l-0.36-1.1-0.37-1.1-0.73-0.36-0.74-0.74-1.1-0.36h-0.73l-1.1 0.36" stroke="#000" stroke-width="1.466px" fill="none"/>
  <path id="path4447" fill="#efefef" d="m326.44 376.98l-1.1 0.37-0.74 1.1-0.36 0.73v1.1l0.36 1.1 0.37 0.73 0.73 0.74 0.74 0.36 1.1 0.37h1.83l24.55-8.43 1.1-0.74 0.74-0.73 0.36-1.1v-0.73l-0.36-1.1-0.37-1.1-0.73-0.73-0.74-0.37-1.1-0.37h-0.73l-1.1 0.37-24.55 8.43z"/>
  <path id="path4449" stroke-linejoin="round" d="m350.99 368.55l-24.55 8.43-1.1 0.37-0.74 1.1-0.36 0.73v1.1l0.36 1.1 0.37 0.73 0.73 0.74 0.74 0.36 1.1 0.37h1.83l24.55-8.43 1.1-0.74 0.74-0.73 0.36-1.1v-0.73l-0.36-1.1-0.37-1.1-0.73-0.73-0.74-0.37-1.1-0.37h-0.73l-1.1 0.37" stroke="#000" stroke-width="1.466px" fill="none"/>
  <path id="path4451" fill="#efefef" d="m353.92 352.05l1.1 0.37 0.74 1.1 0.36 0.73v1.1l-0.36 1.1-0.37 0.74-0.73 0.73-0.74 0.37-1.1 0.36h-1.83l-24.55-8.43-1.1-0.73-0.74-0.74-0.36-1.1v-1.1l0.36-1.1 0.37-0.73 0.73-0.73 0.74-0.37 1.1-0.36h0.73l1.1 0.36 24.55 8.43z"/>
  <path id="path4453" stroke-linejoin="round" d="m329.37 343.62l24.55 8.43 1.1 0.37 0.74 1.1 0.36 0.73v1.1l-0.36 1.1-0.37 0.74-0.73 0.73-0.74 0.37-1.1 0.36h-1.83l-24.55-8.43-1.1-0.73-0.74-0.74-0.36-1.1v-1.1l0.36-1.1 0.37-0.73 0.73-0.73 0.74-0.37 1.1-0.36h0.73l1.1 0.36" stroke="#000" stroke-width="1.466px" fill="none"/>
  <path id="path4455" fill="#efefef" d="m326.44 360.12l-1.1 0.73-0.74 0.73-0.36 0.74v1.1l0.36 1.1 0.37 0.73 0.73 0.73 0.74 0.37 1.1 0.37h1.83l24.55-8.43 1.1-0.74 0.74-0.73 0.36-1.1v-0.73l-0.36-1.1-0.37-1.1-0.73-0.37-0.74-0.73-1.1-0.37h-0.73l-1.1 0.37-24.55 8.43z"/>
  <path id="path4457" stroke-linejoin="round" d="m350.99 351.69l-24.55 8.43-1.1 0.73-0.74 0.73-0.36 0.74v1.1l0.36 1.1 0.37 0.73 0.73 0.73 0.74 0.37 1.1 0.37h1.83l24.55-8.43 1.1-0.74 0.74-0.73 0.36-1.1v-0.73l-0.36-1.1-0.37-1.1-0.73-0.37-0.74-0.73-1.1-0.37h-0.73l-1.1 0.37" stroke="#000" stroke-width="1.466px" fill="none"/>
  <path id="path4459" fill="#efefef" d="m326.44 343.62l-1.1 0.37-0.74 1.1-0.36 0.73v1.1l0.36 1.1 0.37 0.73 0.73 0.74 0.74 0.36 1.1 0.37h1.83l24.55-8.43 1.1-0.73 0.74-0.74 0.36-1.1v-1.1l-0.36-0.73-0.37-1.1-0.73-0.73-0.74-0.37-1.1-0.37h-0.73l-1.1 0.37-24.55 8.43z"/>
  <path id="path4461" stroke-linejoin="round" d="m350.99 335.19l-24.55 8.43-1.1 0.37-0.74 1.1-0.36 0.73v1.1l0.36 1.1 0.37 0.73 0.73 0.74 0.74 0.36 1.1 0.37h1.83l24.55-8.43 1.1-0.73 0.74-0.74 0.36-1.1v-1.1l-0.36-0.73-0.37-1.1-0.73-0.73-0.74-0.37-1.1-0.37h-0.73l-1.1 0.37" stroke="#000" stroke-width="1.466px" fill="none"/>
  <path id="path4463" fill="#efefef" d="m353.92 268.47l0.74 0.74 0.73 0.73 0.37 1.1 0.36 1.1-0.36 0.73-0.74 1.1-0.36 0.74-1.1 0.36-0.74 0.37h-1.1l-0.73-0.37-24.92-8.43-0.73-0.36-0.74-1.1-0.36-0.74-0.37-1.1 0.37-1.1 0.36-0.73 0.74-0.73 1.1-0.37 0.73-0.37h1.83l24.92 8.43z"/>
  <path id="path4465" stroke-linejoin="round" d="m329 260.04l24.92 8.43 0.74 0.74 0.73 0.73 0.37 1.1 0.36 1.1-0.36 0.73-0.74 1.1-0.36 0.74-1.1 0.36-0.74 0.37h-1.1l-0.73-0.37-24.92-8.43-0.73-0.36-0.74-1.1-0.36-0.74-0.37-1.1 0.37-1.1 0.36-0.73 0.74-0.73 1.1-0.37 0.73-0.37h1.83" stroke="#000" stroke-width="1.466px" fill="none"/>
  <path id="path4467" fill="#efefef" d="m353.92 301.83l0.74 0.74 0.73 0.73 0.37 1.1 0.36 1.1-0.36 1.1-0.74 0.73-0.36 0.73-1.1 0.37-0.74 0.37h-1.1l-0.73-0.37-24.92-8.43-0.73-0.37-0.74-1.1-0.36-0.73-0.37-1.1 0.37-1.1 0.36-0.73 0.74-0.74 1.1-0.36 0.73-0.37h1.83l24.92 8.43z"/>
  <path id="path4469" stroke-linejoin="round" d="m329 293.4l24.92 8.43 0.74 0.74 0.73 0.73 0.37 1.1 0.36 1.1-0.36 1.1-0.74 0.73-0.36 0.73-1.1 0.37-0.74 0.37h-1.1l-0.73-0.37-24.92-8.43-0.73-0.37-0.74-1.1-0.36-0.73-0.37-1.1 0.37-1.1 0.36-0.73 0.74-0.74 1.1-0.36 0.73-0.37h1.83" stroke="#000" stroke-width="1.466px" fill="none"/>
  <path id="path4471" fill="#efefef" d="m353.92 318.7l0.74 0.36 0.73 0.73 0.37 1.1 0.36 1.1-0.36 1.1-0.74 0.74-0.36 0.73-1.1 0.37-0.74 0.36h-1.1l-0.73-0.36-24.92-8.43-0.73-0.37-0.74-0.73-0.36-1.1-0.37-1.1 0.37-1.1 0.36-0.74 0.74-0.73 1.1-0.37 0.73-0.36h1.83l24.92 8.8z"/>
  <path id="path4473" stroke-linejoin="round" d="m329 309.9l24.92 8.8 0.74 0.36 0.73 0.73 0.37 1.1 0.36 1.1-0.36 1.1-0.74 0.74-0.36 0.73-1.1 0.37-0.74 0.36h-1.1l-0.73-0.36-24.92-8.43-0.73-0.37-0.74-0.73-0.36-1.1-0.37-1.1 0.37-1.1 0.36-0.74 0.74-0.73 1.1-0.37 0.73-0.36h1.83" stroke="#000" stroke-width="1.466px" fill="none"/>
  <path id="path4475" fill="#efefef" d="m326.07 326.76l-0.73 0.73-0.74 0.74-0.36 1.1-0.37 1.1 0.37 1.1 0.36 0.73 0.74 0.73 1.1 0.37 0.73 0.36h1.1l0.73-0.36 24.92-8.43 0.74-0.37 0.73-1.1 0.37-0.73 0.36-1.1-0.36-1.1-0.74-0.74-0.36-0.73-1.1-0.36-0.74-0.37h-1.83l-24.92 8.43z"/>
  <path id="path4477" stroke-linejoin="round" d="m350.99 318.33l-24.92 8.43-0.73 0.73-0.74 0.74-0.36 1.1-0.37 1.1 0.37 1.1 0.36 0.73 0.74 0.73 1.1 0.37 0.73 0.36h1.1l0.73-0.36 24.92-8.43 0.74-0.37 0.73-1.1 0.37-0.73 0.36-1.1-0.36-1.1-0.74-0.74-0.36-0.73-1.1-0.36-0.74-0.37h-1.83" stroke="#000" stroke-width="1.466px" fill="none"/>
  <path id="path4479" fill="#efefef" d="m326.07 310.26l-0.73 0.74-0.74 0.73-0.36 1.1-0.37 1.1 0.37 0.73 0.36 1.1 0.74 0.74 1.1 0.36 0.73 0.37h1.1l0.73-0.37 24.92-8.43 0.74-0.37 0.73-1.1 0.37-0.73 0.36-1.1-0.36-1.1-0.74-0.73-0.36-0.73-1.1-0.37-0.74-0.37h-1.83l-24.92 8.43z"/>
  <path id="path4481" stroke-linejoin="round" d="m350.99 301.83l-24.92 8.43-0.73 0.74-0.74 0.73-0.36 1.1-0.37 1.1 0.37 0.73 0.36 1.1 0.74 0.74 1.1 0.36 0.73 0.37h1.1l0.73-0.37 24.92-8.43 0.74-0.37 0.73-1.1 0.37-0.73 0.36-1.1-0.36-1.1-0.74-0.73-0.36-0.73-1.1-0.37-0.74-0.37h-1.83" stroke="#000" stroke-width="1.466px" fill="none"/>
  <path id="path4483" fill="#efefef" d="m353.92 285.34l0.74 0.73 0.73 0.73 0.37 1.1 0.36 0.74-0.36 1.1-0.74 1.1-0.36 0.36-1.1 0.74-0.74 0.36h-1.1l-0.73-0.36-24.92-8.44-0.73-0.36-0.74-1.1-0.36-0.74-0.37-1.09 0.37-1.1 0.36-0.74 0.74-0.73 1.1-0.37 0.73-0.36h1.83l24.92 8.43z"/>
  <path id="path4485" stroke-linejoin="round" d="m329 276.91l24.92 8.43 0.74 0.73 0.73 0.73 0.37 1.1 0.36 0.74-0.36 1.1-0.74 1.1-0.36 0.36-1.1 0.74-0.74 0.36h-1.1l-0.73-0.36-24.92-8.44-0.73-0.36-0.74-1.1-0.36-0.74-0.37-1.09 0.37-1.1 0.36-0.74 0.74-0.73 1.1-0.37 0.73-0.36h1.83" stroke="#000" stroke-width="1.466px" fill="none"/>
  <path id="path4487" fill="#efefef" d="m326.07 293.4l-0.73 0.73-0.74 0.74-0.36 1.1-0.37 1.1 0.37 1.1 0.36 0.73 0.74 0.73 1.1 0.37 0.73 0.37h1.1l0.73-0.37 24.92-8.43 0.74-0.37 0.73-1.1 0.37-0.73 0.36-1.1-0.36-1.1-0.74-0.73-0.36-0.74-1.1-0.36-0.74-0.37h-1.83l-24.92 8.43z"/>
  <path id="path4489" stroke-linejoin="round" d="m350.99 284.97l-24.92 8.43-0.73 0.73-0.74 0.74-0.36 1.1-0.37 1.1 0.37 1.1 0.36 0.73 0.74 0.73 1.1 0.37 0.73 0.37h1.1l0.73-0.37 24.92-8.43 0.74-0.37 0.73-1.1 0.37-0.73 0.36-1.1-0.36-1.1-0.74-0.73-0.36-0.74-1.1-0.36-0.74-0.37h-1.83" stroke="#000" stroke-width="1.466px" fill="none"/>
  <path id="path4491" fill="#efefef" d="m326.07 276.91l-0.73 0.73-0.74 0.73-0.36 1.1-0.37 0.74 0.37 1.09 0.36 1.1 0.74 0.74 1.1 0.36 0.73 0.37h1.1l0.73-0.37 24.92-8.43 0.74-0.36 0.73-1.1 0.37-0.74 0.36-1.1-0.36-1.1-0.74-0.73-0.36-0.73-1.1-0.37-0.74-0.37h-1.83l-24.92 8.44z"/>
  <path id="path4493" stroke-linejoin="round" d="m350.99 268.47l-24.92 8.44-0.73 0.73-0.74 0.73-0.36 1.1-0.37 0.74 0.37 1.09 0.36 1.1 0.74 0.74 1.1 0.36 0.73 0.37h1.1l0.73-0.37 24.92-8.43 0.74-0.36 0.73-1.1 0.37-0.74 0.36-1.1-0.36-1.1-0.74-0.73-0.36-0.73-1.1-0.37-0.74-0.37h-1.83" stroke="#000" stroke-width="1.466px" fill="none"/>
  <path id="path4495" fill="#efefef" d="m353.56 202.13l1.1 0.36 0.73 0.73 0.37 1.1v1.1l-0.37 1.1-0.37 0.74-0.73 0.73-0.73 0.37-1.1 0.36h-1.83l-24.56-8.79-1.1-0.37-0.73-0.73-0.37-1.1v-1.1l0.37-1.1 0.36-0.74 0.74-0.73 0.73-0.37 1.1-0.36h0.73l1.1 0.36 24.56 8.44z"/>
  <path id="path4497" stroke-linejoin="round" d="m329 193.69l24.56 8.44 1.1 0.36 0.73 0.73 0.37 1.1v1.1l-0.37 1.1-0.37 0.74-0.73 0.73-0.73 0.37-1.1 0.36h-1.83l-24.56-8.79-1.1-0.37-0.73-0.73-0.37-1.1v-1.1l0.37-1.1 0.36-0.74 0.74-0.73 0.73-0.37 1.1-0.36h0.73l1.1 0.36" stroke="#000" stroke-width="1.466px" fill="none"/>
  <path id="path4499" fill="#efefef" d="m353.56 235.48l1.1 0.37 0.73 0.73 0.37 1.1v1.1l-0.37 1.1-0.37 0.74-0.73 0.73-0.73 0.36-1.1 0.37h-1.83l-24.56-8.8-1.1-0.36-0.73-0.74-0.37-1.1v-1.1l0.37-1.1 0.36-0.73 0.74-0.73 0.73-0.37 1.1-0.36h0.73l1.1 0.36 24.56 8.43z"/>
  <path id="path4501" stroke-linejoin="round" d="m329 227.05l24.56 8.43 1.1 0.37 0.73 0.73 0.37 1.1v1.1l-0.37 1.1-0.37 0.74-0.73 0.73-0.73 0.36-1.1 0.37h-1.83l-24.56-8.8-1.1-0.36-0.73-0.74-0.37-1.1v-1.1l0.37-1.1 0.36-0.73 0.74-0.73 0.73-0.37 1.1-0.36h0.73l1.1 0.36" stroke="#000" stroke-width="1.466px" fill="none"/>
  <path id="path4503" fill="#efefef" d="m353.56 251.98l1.1 0.37 0.73 1.1 0.37 0.73v1.1l-0.37 1.1-0.37 0.73-0.73 0.73-0.73 0.37-1.1 0.37h-1.83l-24.56-8.43-1.1-0.74-0.73-0.73-0.37-1.1v-1.1l0.37-1.1 0.36-0.73 0.74-0.74 0.73-0.36 1.1-0.37h0.73l1.1 0.37 24.56 8.43z"/>
  <path id="path4505" stroke-linejoin="round" d="m329 243.55l24.56 8.43 1.1 0.37 0.73 1.1 0.37 0.73v1.1l-0.37 1.1-0.37 0.73-0.73 0.73-0.73 0.37-1.1 0.37h-1.83l-24.56-8.43-1.1-0.74-0.73-0.73-0.37-1.1v-1.1l0.37-1.1 0.36-0.73 0.74-0.74 0.73-0.36 1.1-0.37h0.73l1.1 0.37" stroke="#000" stroke-width="1.466px" fill="none"/>
  <path id="path4507" fill="#efefef" d="m326.07 260.41l-1.1 0.37-0.73 0.73-0.37 1.1v1.1l0.37 1.1 0.36 0.73 0.74 0.74 0.73 0.36 1.1 0.37h1.83l24.56-8.8 1.1-0.37 0.73-0.73 0.37-1.1v-1.1l-0.37-1.1-0.37-0.73-0.73-0.73-0.73-0.37-1.1-0.37h-0.74l-1.09 0.37-24.56 8.43z"/>
  <path id="path4509" stroke-linejoin="round" d="m350.63 251.98l-24.56 8.43-1.1 0.37-0.73 0.73-0.37 1.1v1.1l0.37 1.1 0.36 0.73 0.74 0.74 0.73 0.36 1.1 0.37h1.83l24.56-8.8 1.1-0.37 0.73-0.73 0.37-1.1v-1.1l-0.37-1.1-0.37-0.73-0.73-0.73-0.73-0.37-1.1-0.37h-0.74l-1.09 0.37" stroke="#000" stroke-width="1.466px" fill="none"/>
  <path id="path4511" fill="#efefef" d="m326.07 243.91l-1.1 0.37-0.73 0.73-0.37 1.1v1.1l0.37 1.1 0.36 0.74 0.74 0.73 0.73 0.37 1.1 0.36h1.83l24.56-8.8 1.1-0.36 0.73-0.73 0.37-1.1v-1.1l-0.37-1.1-0.37-0.74-0.73-0.73-0.73-0.37-1.1-0.36h-0.74l-1.09 0.36-24.56 8.43z"/>
  <path id="path4513" stroke-linejoin="round" d="m350.63 235.48l-24.56 8.43-1.1 0.37-0.73 0.73-0.37 1.1v1.1l0.37 1.1 0.36 0.74 0.74 0.73 0.73 0.37 1.1 0.36h1.83l24.56-8.8 1.1-0.36 0.73-0.73 0.37-1.1v-1.1l-0.37-1.1-0.37-0.74-0.73-0.73-0.73-0.37-1.1-0.36h-0.74l-1.09 0.36" stroke="#000" stroke-width="1.466px" fill="none"/>
  <path id="path4515" fill="#efefef" d="m353.56 218.99l1.1 0.36 0.73 0.74 0.37 1.1v1.1l-0.37 1.1-0.37 0.73-0.73 0.73-0.73 0.37-1.1 0.37h-1.83l-24.56-8.8-1.1-0.37-0.73-0.73-0.37-1.1v-1.1l0.37-1.1 0.36-0.73 0.74-0.74 0.73-0.36 1.1-0.37h0.73l1.1 0.37 24.56 8.43z"/>
  <path id="path4517" stroke-linejoin="round" d="m329 210.56l24.56 8.43 1.1 0.36 0.73 0.74 0.37 1.1v1.1l-0.37 1.1-0.37 0.73-0.73 0.73-0.73 0.37-1.1 0.37h-1.83l-24.56-8.8-1.1-0.37-0.73-0.73-0.37-1.1v-1.1l0.37-1.1 0.36-0.73 0.74-0.74 0.73-0.36 1.1-0.37h0.73l1.1 0.37" stroke="#000" stroke-width="1.466px" fill="none"/>
  <path id="path4519" fill="#efefef" d="m326.07 227.05l-1.1 0.37-0.73 0.73-0.37 1.1v1.1l0.37 1.1 0.36 0.73 0.74 0.74 0.73 0.36 1.1 0.37h1.83l24.56-8.8 1.1-0.36 0.73-0.74 0.37-1.1v-1.1l-0.37-1.1-0.37-0.73-0.73-0.73-0.73-0.37-1.1-0.37h-0.74l-1.09 0.37-24.56 8.43z"/>
  <path id="path4521" stroke-linejoin="round" d="m350.63 218.62l-24.56 8.43-1.1 0.37-0.73 0.73-0.37 1.1v1.1l0.37 1.1 0.36 0.73 0.74 0.74 0.73 0.36 1.1 0.37h1.83l24.56-8.8 1.1-0.36 0.73-0.74 0.37-1.1v-1.1l-0.37-1.1-0.37-0.73-0.73-0.73-0.73-0.37-1.1-0.37h-0.74l-1.09 0.37" stroke="#000" stroke-width="1.466px" fill="none"/>
  <path id="path4523" fill="#efefef" d="m326.07 210.56l-1.1 0.36-0.73 0.74-0.37 1.1v1.1l0.37 1.1 0.36 0.73 0.74 0.73 0.73 0.37 1.1 0.36h1.83l24.56-8.79 1.1-0.37 0.73-0.73 0.37-1.1v-1.1l-0.37-1.1-0.37-0.74-0.73-0.73-0.73-0.36-1.1-0.37h-0.74l-1.09 0.37-24.56 8.43z"/>
  <path id="path4525" stroke-linejoin="round" d="m350.63 202.13l-24.56 8.43-1.1 0.36-0.73 0.74-0.37 1.1v1.1l0.37 1.1 0.36 0.73 0.74 0.73 0.73 0.37 1.1 0.36h1.83l24.56-8.79 1.1-0.37 0.73-0.73 0.37-1.1v-1.1l-0.37-1.1-0.37-0.74-0.73-0.73-0.73-0.36-1.1-0.37h-0.74l-1.09 0.37" stroke="#000" stroke-width="1.466px" fill="none"/>
  <path id="path4527" fill="#efefef" d="m353.92 135.78l1.1 0.73 0.74 0.73 0.36 0.73v1.1l-0.36 1.1-0.37 0.74-0.73 0.73-0.74 0.73h-2.93l-24.55-8.43-1.1-0.73-0.74-0.73-0.36-1.1v-0.74l0.36-1.1 0.37-1.1 0.73-0.36 0.74-0.74h1.1l0.73-0.36 1.1 0.36 24.55 8.44z"/>
  <path id="path4529" stroke-linejoin="round" d="m329.37 127.34l24.55 8.44 1.1 0.73 0.74 0.73 0.36 0.73v1.1l-0.36 1.1-0.37 0.74-0.73 0.73-0.74 0.73h-2.93l-24.55-8.43-1.1-0.73-0.74-0.73-0.36-1.1v-0.74l0.36-1.1 0.37-1.1 0.73-0.36 0.74-0.74h1.1l0.73-0.36 1.1 0.36" stroke="#000" stroke-width="1.466px" fill="none"/>
  <path id="path4531" fill="#efefef" d="m353.92 169.13l1.1 0.74 0.74 0.73 0.36 0.73v1.1l-0.36 1.1-0.37 0.74-0.73 0.73-0.74 0.73h-2.93l-24.55-8.43-1.1-0.73-0.74-0.74-0.36-0.73v-1.1l0.36-1.1 0.37-1.1 0.73-0.36 0.74-0.74h1.1l0.73-0.36 1.1 0.36 24.55 8.43z"/>
  <path id="path4533" stroke-linejoin="round" d="m329.37 160.7l24.55 8.43 1.1 0.74 0.74 0.73 0.36 0.73v1.1l-0.36 1.1-0.37 0.74-0.73 0.73-0.74 0.73h-2.93l-24.55-8.43-1.1-0.73-0.74-0.74-0.36-0.73v-1.1l0.36-1.1 0.37-1.1 0.73-0.36 0.74-0.74h1.1l0.73-0.36 1.1 0.36" stroke="#000" stroke-width="1.466px" fill="none"/>
  <path id="path4535" fill="#efefef" d="m353.92 185.63l0.74 0.73 0.73 0.74 0.37 0.73 0.36 1.1-0.36 1.1-0.74 1.1-0.36 0.36-1.1 0.74h-0.74l-1.1 0.36-0.73-0.36-24.92-8.43-0.73-0.74-0.74-0.73-0.36-0.73-0.37-1.1 0.37-1.1 0.36-1.1 0.74-0.37 1.1-0.73h0.73l1.1-0.37 0.73 0.37 24.92 8.43z"/>
  <path id="path4537" stroke-linejoin="round" d="m329 177.2l24.92 8.43 0.74 0.73 0.73 0.74 0.37 0.73 0.36 1.1-0.36 1.1-0.74 1.1-0.36 0.36-1.1 0.74h-0.74l-1.1 0.36-0.73-0.36-24.92-8.43-0.73-0.74-0.74-0.73-0.36-0.73-0.37-1.1 0.37-1.1 0.36-1.1 0.74-0.37 1.1-0.73h0.73l1.1-0.37 0.73 0.37" stroke="#000" stroke-width="1.466px" fill="none"/>
  <path id="path4539" fill="#efefef" d="m326.07 194.06l-1.1 0.37-0.73 0.73-0.37 1.1v1.1l0.37 1.1 0.36 0.73 0.74 0.74 0.73 0.36 1.1 0.37h1.83l24.56-8.8 1.1-0.37 0.73-0.73 0.37-1.1v-1.1l-0.37-1.1-0.37-0.73-0.73-0.73-0.73-0.37-1.1-0.37h-0.74l-1.09 0.37-24.56 8.43z"/>
  <path id="path4541" stroke-linejoin="round" d="m350.63 185.63l-24.56 8.43-1.1 0.37-0.73 0.73-0.37 1.1v1.1l0.37 1.1 0.36 0.73 0.74 0.74 0.73 0.36 1.1 0.37h1.83l24.56-8.8 1.1-0.37 0.73-0.73 0.37-1.1v-1.1l-0.37-1.1-0.37-0.73-0.73-0.73-0.73-0.37-1.1-0.37h-0.74l-1.09 0.37" stroke="#000" stroke-width="1.466px" fill="none"/>
  <path id="path4543" fill="#efefef" d="m326.07 177.56l-1.1 0.74-0.73 0.73-0.37 0.73v1.1l0.37 1.1 0.36 0.74 0.74 0.73 0.73 0.73h2.93l24.56-8.43 1.1-0.73 0.73-0.73 0.37-1.1v-0.74l-0.37-1.1-0.37-1.1-0.73-0.36-0.73-0.74h-1.1l-0.74-0.36-1.09 0.36-24.56 8.43z"/>
  <path id="path4545" stroke-linejoin="round" d="m350.63 169.13l-24.56 8.43-1.1 0.74-0.73 0.73-0.37 0.73v1.1l0.37 1.1 0.36 0.74 0.74 0.73 0.73 0.73h2.93l24.56-8.43 1.1-0.73 0.73-0.73 0.37-1.1v-0.74l-0.37-1.1-0.37-1.1-0.73-0.36-0.73-0.74h-1.1l-0.74-0.36-1.09 0.36" stroke="#000" stroke-width="1.466px" fill="none"/>
  <path id="path4547" fill="#efefef" d="m353.92 152.64l1.1 0.73 0.74 0.73 0.36 0.74v1.1l-0.36 1.1-0.37 0.73-0.73 0.73-0.74 0.37-1.1 0.37h-1.83l-24.55-8.43-1.1-0.74-0.74-0.73-0.36-1.1v-0.73l0.36-1.1 0.37-1.1 0.73-0.37 0.74-0.73 1.1-0.37h0.73l1.1 0.37 24.55 8.43z"/>
  <path id="path4549" stroke-linejoin="round" d="m329.37 144.21l24.55 8.43 1.1 0.73 0.74 0.73 0.36 0.74v1.1l-0.36 1.1-0.37 0.73-0.73 0.73-0.74 0.37-1.1 0.37h-1.83l-24.55-8.43-1.1-0.74-0.74-0.73-0.36-1.1v-0.73l0.36-1.1 0.37-1.1 0.73-0.37 0.74-0.73 1.1-0.37h0.73l1.1 0.37" stroke="#000" stroke-width="1.466px" fill="none"/>
  <path id="path4551" fill="#efefef" d="m326.44 160.7l-1.1 0.74-0.74 0.73-0.36 0.73v1.1l0.36 1.1 0.37 0.73 0.73 0.74 0.74 0.73h2.93l24.55-8.43 1.1-0.73 0.74-0.74 0.36-0.73v-1.1l-0.36-1.1-0.37-1.1-0.73-0.37-0.74-0.73h-1.1l-0.73-0.37-1.1 0.37-24.55 8.43z"/>
  <path id="path4553" stroke-linejoin="round" d="m350.99 152.27l-24.55 8.43-1.1 0.74-0.74 0.73-0.36 0.73v1.1l0.36 1.1 0.37 0.73 0.73 0.74 0.74 0.73h2.93l24.55-8.43 1.1-0.73 0.74-0.74 0.36-0.73v-1.1l-0.36-1.1-0.37-1.1-0.73-0.37-0.74-0.73h-1.1l-0.73-0.37-1.1 0.37" stroke="#000" stroke-width="1.466px" fill="none"/>
  <path id="path4555" fill="#efefef" d="m326.44 144.21l-1.1 0.73-0.74 0.73-0.36 0.74v1.1l0.36 1.1 0.37 0.73 0.73 0.73 0.74 0.74h2.93l24.55-8.44 1.1-0.73 0.74-0.73 0.36-1.1v-0.74l-0.36-1.1-0.37-1.09-0.73-0.37-0.74-0.73-1.1-0.37h-0.73l-1.1 0.37-24.55 8.43z"/>
  <path id="path4557" stroke-linejoin="round" d="m350.99 135.78l-24.55 8.43-1.1 0.73-0.74 0.73-0.36 0.74v1.1l0.36 1.1 0.37 0.73 0.73 0.73 0.74 0.74h2.93l24.55-8.44 1.1-0.73 0.74-0.73 0.36-1.1v-0.74l-0.36-1.1-0.37-1.09-0.73-0.37-0.74-0.73-1.1-0.37h-0.73l-1.1 0.37" stroke="#000" stroke-width="1.466px" fill="none"/>
  <path id="path4559" fill="#efefef" d="m335.6 115.61l-2.93 9.17-6.23 2.2-2.2 1.83 0.36 2.57 1.84 1.83 2.93 0.37 6.23-2.2 3.66-6.97 3.67-7.7v-7.33l-6.23 0.37-1.47 0.37h-0.36l0.73 5.49z"/>
  <path id="path4561" stroke-linejoin="round" d="m334.87 110.12l0.73 5.49-2.93 9.17-6.23 2.2-2.2 1.83 0.36 2.57 1.84 1.83 2.93 0.37 6.23-2.2 3.66-6.97 3.67-7.7v-7.33l-6.23 0.37-1.47 0.37h-0.36" stroke="#000" stroke-width="1.466px" fill="none"/>
  <path id="path4563" fill="#efefef" d="m343.3 418.77l2.19-6.23 9.53-4.4 1.84-1.47v-2.93l-2.2-1.83h-2.57l-6.23 1.83-7.7 6.23-2.19 7.7v12.1h7.33v-11z"/>
  <path id="path4565" stroke-linejoin="round" d="m343.3 429.77v-11l2.19-6.23 9.53-4.4 1.84-1.47v-2.93l-2.2-1.83h-2.57l-6.23 1.83-7.7 6.23-2.19 7.7v12.1h7.33" stroke="#000" stroke-width="1.466px" fill="none"/>
  <path id="path4567" fill="#efefef" d="m327.17 100.58l8.06 9.17h7.33l8.8-9.17h-24.19z"/>
  <path id="path4569" stroke-linejoin="round" d="m351.36 100.58h-24.19l8.06 9.17h7.33l8.8-9.17" stroke="#000" stroke-width="1.466px" fill="none"/>
  <path id="path4571" fill="#efefef" d="m331.2 430.13l4.4-3.66h7.33l5.5 3.66h-17.23z"/>
  <path id="path4573" stroke-linejoin="round" d="m348.43 430.13h-17.23l4.4-3.66h7.33l5.5 3.66" stroke="#000" stroke-width="1.466px" fill="none"/>
  <path id="path4575" fill="#efefef" d="m386.91 409.24l1.1 0.37 0.73 0.36 1.1 0.37v5.13l-1.1 0.37-0.73 0.36h-1.1l-1.47 0.37v-7.7l1.47 0.37z"/>
  <path id="path4577" stroke-linejoin="round" d="m385.44 408.87l1.47 0.37 1.1 0.37 0.73 0.36 1.1 0.37v5.13l-1.1 0.37-0.73 0.36h-1.1l-1.47 0.37v-7.7" stroke="#000" stroke-width="1.466px" fill="none"/>
  <path id="path4579" fill="#efefef" d="m385.44 408.87v7.7h-1.1v-7.7h1.1z"/>
  <path id="path4581" stroke-linejoin="round" d="m384.34 408.87h1.1v7.7h-1.1v-7.7" stroke="#000" stroke-width="1.466px" fill="none"/>
  <path id="path4583" fill="#efefef" d="m375.55 407.41l1.1 0.73 1.1 0.37 0.73 0.73v7.33l-0.73 0.73-0.74 0.37-1.46 0.37-1.1 0.36v-11.36l1.1 0.37z"/>
  <path id="path4585" stroke-linejoin="round" d="m374.45 407.04l1.1 0.37 1.1 0.73 1.1 0.37 0.73 0.73v7.33l-0.73 0.73-0.74 0.37-1.46 0.37-1.1 0.36v-11.36" stroke="#000" stroke-width="1.466px" fill="none"/>
  <path id="path4587" fill="#efefef" d="m374.45 407.04v11.36h-1.47v-11.36h1.47z"/>
  <path id="path4589" stroke-linejoin="round" d="m372.98 407.04h1.47v11.36h-1.47v-11.36" stroke="#000" stroke-width="1.466px" fill="none"/>
  <path id="path4591" fill="#efefef" d="m381.41 408.14l1.1 0.37 0.73 0.73 1.1 0.37v6.59l-1.1 0.37-0.73 0.37-1.1 0.36h-1.47v-9.16h1.47z"/>
  <path id="path4593" stroke-linejoin="round" d="m379.94 408.14h1.47l1.1 0.37 0.73 0.73 1.1 0.37v6.59l-1.1 0.37-0.73 0.37-1.1 0.36h-1.47v-9.16" stroke="#000" stroke-width="1.466px" fill="none"/>
  <path id="path4595" fill="#efefef" d="m379.94 408.14v9.16h-1.46v-9.16h1.46z"/>
  <path id="path4597" stroke-linejoin="round" d="m378.48 408.14h1.46v9.16h-1.46v-9.16" stroke="#000" stroke-width="1.466px" fill="none"/>
  <path id="path4599" fill="#efefef" d="m386.54 118.55l1.1 0.36 1.1 0.37 0.73 0.37v5.13l-0.73 0.36-0.73 0.37-1.47 0.37h-1.1v-7.7l1.1 0.37z"/>
  <path id="path4601" stroke-linejoin="round" d="m385.44 118.18l1.1 0.37 1.1 0.36 1.1 0.37 0.73 0.37v5.13l-0.73 0.36-0.73 0.37-1.47 0.37h-1.1v-7.7" stroke="#000" stroke-width="1.466px" fill="none"/>
  <path id="path4603" fill="#efefef" d="m385.44 118.18v7.7h-1.46v-7.7h1.46z"/>
  <path id="path4605" stroke-linejoin="round" d="m383.98 118.18h1.46v7.7h-1.46v-7.7" stroke="#000" stroke-width="1.466px" fill="none"/>
  <path id="path4607" fill="#efefef" d="m375.55 117.08l1.1 0.37 1.1 0.36 0.73 0.74v7.33l-0.73 0.73-1.1 0.37-1.1 0.36-1.1 0.37v-11l1.1 0.37z"/>
  <path id="path4609" stroke-linejoin="round" d="m374.45 116.71l1.1 0.37 1.1 0.37 1.1 0.36 0.73 0.74v7.33l-0.73 0.73-1.1 0.37-1.1 0.36-1.1 0.37v-11" stroke="#000" stroke-width="1.466px" fill="none"/>
  <path id="path4611" fill="#efefef" d="m374.45 116.71v11h-1.47v-11h1.47z"/>
  <path id="path4613" stroke-linejoin="round" d="m372.98 116.71h1.47v11h-1.47v-11" stroke="#000" stroke-width="1.466px" fill="none"/>
  <path id="path4615" fill="#efefef" d="m381.04 117.81l1.1 0.37 1.1 0.37 0.74 0.36v6.6l-0.74 0.37-0.73 0.36-1.47 0.37-1.1 0.37v-9.53l1.1 0.36z"/>
  <path id="path4617" stroke-linejoin="round" d="m379.94 117.45l1.1 0.36 1.1 0.37 1.1 0.37 0.74 0.36v6.6l-0.74 0.37-0.73 0.36-1.47 0.37-1.1 0.37v-9.53" stroke="#000" stroke-width="1.466px" fill="none"/>
  <path id="path4619" fill="#efefef" d="m379.94 117.45v9.53h-1.46v-9.53h1.46z"/>
  <path id="path4621" stroke-linejoin="round" d="m378.48 117.45h1.46v9.53h-1.46v-9.53" stroke="#000" stroke-width="1.466px" fill="none"/>
  <path id="path4631" stroke-linejoin="round" d="m352.09 56.596h-26.39l-1.83 2.566v2.932l2.93 38.126h25.29l2.57-38.126-0.74-2.932-1.83-2.566" stroke="#000" stroke-width="1.466px" fill="#fff"/>
  <path id="path12632" stroke-linejoin="round" d="m42.021 209.46l1.814 29.77 41.272 0.15 1.584-29.59-44.67-0.33z" stroke="#000" stroke-width="2" fill="#fff"/>
  <path id="path13623" fill="#efb6ef" d="m385.46 576.33l10.96 34.37 5.28 17 1.89 5.67 0.38 1.13v1.13l-0.38 2.27-0.38 1.89v0.75l-0.37 0.38-0.38 0.76-0.76 1.13-0.75 0.76-1.14 0.75-0.75 0.76h-111.41l-1.13-0.38-1.89-0.76-1.89-0.75-1.13-1.14-0.75-0.75-0.38-0.38-0.38-1.13-0.38-1.89v-4.53l1.89-5.67 5.29-17 10.2-34.37h88.36z"/>
  <path id="path13625" stroke-linejoin="round" d="m363.94 507.58l21.52 68.75 10.96 34.37 5.28 17 1.89 5.67 0.38 1.13v1.13l-0.38 2.27-0.38 1.89v0.75l-0.37 0.38-0.38 0.76-0.76 1.13-0.75 0.76-1.14 0.75-0.75 0.76h-111.41l-1.13-0.38-1.89-0.76-1.89-0.75-1.13-1.14-0.75-0.75-0.38-0.38-0.38-1.13-0.38-1.89v-4.53l1.89-5.67 5.29-17 10.2-34.37 20.77-68.75 0.37-2.27 1.14-6.04v-0.76l-0.76-34.37-0.38-1.13-0.37-0.76-0.38-1.13-0.76-1.13-0.37-0.76v-0.38l0.37-0.38 0.38-0.37 1.13-0.38 0.38-0.38h45.7l0.37 0.38 0.76 0.38 0.38 0.37 0.37 0.38v0.38l-0.37 0.76-1.14 1.13-0.75 0.75-0.38 1.14-0.38 1.13-1.13 35.13v0.38l0.76 3.78 1.13 3.77v0.38" stroke="#000" stroke-width="1.379" fill="none"/>
  <metadata>
    <rdf:RDF>
      <cc:Work>
        <dc:format>image/svg+xml</dc:format>
        <dc:type rdf:resource="http://purl.org/dc/dcmitype/StillImage"/>
        <cc:license rdf:resource="http://creativecommons.org/licenses/publicdomain/"/>
        <dc:publisher>
          <cc:Agent rdf:about="http://openclipart.org/">
            <dc:title>Openclipart</dc:title>
          </cc:Agent>
        </dc:publisher>
        <dc:title>kjeldal</dc:title>
        <dc:date>2008-05-31T15:39:53</dc:date>
        <dc:description>chemistry, chemistry, clip art, clipart, ecology, ecology, image, labo, labo, media, public domain, science, science, svg, </dc:description>
        <dc:source>http://openclipart.org/detail/17206/kjeldal-by-laurent</dc:source>
        <dc:creator>
          <cc:Agent>
            <dc:title>laurent</dc:title>
          </cc:Agent>
        </dc:creator>
        <dc:subject>
          <rdf:Bag>
            <rdf:li>chemistry</rdf:li>
            <rdf:li>clip art</rdf:li>
            <rdf:li>clipart</rdf:li>
            <rdf:li>ecology</rdf:li>
            <rdf:li>image</rdf:li>
            <rdf:li>labo</rdf:li>
            <rdf:li>media</rdf:li>
            <rdf:li>public domain</rdf:li>
            <rdf:li>science</rdf:li>
            <rdf:li>svg</rdf:li>
          </rdf:Bag>
        </dc:subject>
      </cc:Work>
      <cc:License rdf:about="http://creativecommons.org/licenses/publicdomain/">
        <cc:permits rdf:resource="http://creativecommons.org/ns#Reproduction"/>
        <cc:permits rdf:resource="http://creativecommons.org/ns#Distribution"/>
        <cc:permits rdf:resource="http://creativecommons.org/ns#DerivativeWorks"/>
      </cc:License>
    </rdf:RDF>
  </metadata>
</svg>
